<mxfile host="app.diagrams.net" modified="2024-03-30T02:52:56.450Z" agent="Mozilla/5.0 (Windows NT 10.0; Win64; x64) AppleWebKit/537.36 (KHTML, like Gecko) Chrome/121.0.0.0 Safari/537.36 OPR/107.0.0.0" etag="XR17ZvVPgSw6bejLEYv7" version="24.2.1" type="device">
  <diagram name="Страница — 1" id="6nn7O-Femeh64qxDm3Wk">
    <mxGraphModel dx="1393" dy="804" grid="1" gridSize="10" guides="1" tooltips="1" connect="1" arrows="1" fold="1" page="1" pageScale="1" pageWidth="827" pageHeight="1169" math="0" shadow="0">
      <root>
        <mxCell id="0" />
        <mxCell id="1" parent="0" />
        <mxCell id="YvW-6pdLt3FJuE7N5xjO-2" value="Проверка введенных данных" style="html=1;align=center;verticalAlign=top;rounded=1;absoluteArcSize=1;arcSize=10;dashed=0;whiteSpace=wrap;container=1;fixDash=0;recursiveResize=0;fontSize=14;" parent="1" vertex="1">
          <mxGeometry x="80" y="120" width="480" height="320" as="geometry" />
        </mxCell>
        <mxCell id="HNl8YbV5i-yA4617Ao2V-7" value="Модуль проверки текстовых данных" style="html=1;dropTarget=0;whiteSpace=wrap;fontSize=16;verticalAlign=middle;" parent="YvW-6pdLt3FJuE7N5xjO-2" vertex="1">
          <mxGeometry x="40" y="40" width="160" height="100" as="geometry" />
        </mxCell>
        <mxCell id="HNl8YbV5i-yA4617Ao2V-8" value="" style="shape=module;jettyWidth=8;jettyHeight=4;" parent="HNl8YbV5i-yA4617Ao2V-7" vertex="1">
          <mxGeometry x="1" width="20" height="20" relative="1" as="geometry">
            <mxPoint x="-27" y="7" as="offset" />
          </mxGeometry>
        </mxCell>
        <mxCell id="HNl8YbV5i-yA4617Ao2V-9" value="База данных" style="html=1;dropTarget=0;whiteSpace=wrap;fontSize=16;" parent="YvW-6pdLt3FJuE7N5xjO-2" vertex="1">
          <mxGeometry x="40" y="200" width="160" height="100" as="geometry" />
        </mxCell>
        <mxCell id="HNl8YbV5i-yA4617Ao2V-10" value="" style="shape=module;jettyWidth=8;jettyHeight=4;" parent="HNl8YbV5i-yA4617Ao2V-9" vertex="1">
          <mxGeometry x="1" width="20" height="20" relative="1" as="geometry">
            <mxPoint x="-27" y="7" as="offset" />
          </mxGeometry>
        </mxCell>
        <mxCell id="HNl8YbV5i-yA4617Ao2V-17" style="edgeStyle=orthogonalEdgeStyle;rounded=0;orthogonalLoop=1;jettySize=auto;html=1;exitX=1;exitY=0.5;exitDx=0;exitDy=0;exitPerimeter=0;endArrow=none;endFill=0;" parent="YvW-6pdLt3FJuE7N5xjO-2" source="HNl8YbV5i-yA4617Ao2V-12" target="HNl8YbV5i-yA4617Ao2V-5" edge="1">
          <mxGeometry relative="1" as="geometry" />
        </mxCell>
        <mxCell id="HNl8YbV5i-yA4617Ao2V-18" style="edgeStyle=orthogonalEdgeStyle;rounded=0;orthogonalLoop=1;jettySize=auto;html=1;exitX=0;exitY=0.5;exitDx=0;exitDy=0;exitPerimeter=0;endArrow=none;endFill=0;" parent="YvW-6pdLt3FJuE7N5xjO-2" source="HNl8YbV5i-yA4617Ao2V-12" target="HNl8YbV5i-yA4617Ao2V-7" edge="1">
          <mxGeometry relative="1" as="geometry" />
        </mxCell>
        <mxCell id="HNl8YbV5i-yA4617Ao2V-12" value="" style="shape=providedRequiredInterface;html=1;verticalLabelPosition=bottom;sketch=0;" parent="YvW-6pdLt3FJuE7N5xjO-2" vertex="1">
          <mxGeometry x="270" y="80" width="20" height="20" as="geometry" />
        </mxCell>
        <mxCell id="HNl8YbV5i-yA4617Ao2V-16" value="" style="endArrow=open;dashed=1;endFill=0;endSize=12;html=1;rounded=0;" parent="YvW-6pdLt3FJuE7N5xjO-2" source="HNl8YbV5i-yA4617Ao2V-7" target="HNl8YbV5i-yA4617Ao2V-9" edge="1">
          <mxGeometry width="160" relative="1" as="geometry">
            <mxPoint x="390" y="200" as="sourcePoint" />
            <mxPoint x="550" y="200" as="targetPoint" />
          </mxGeometry>
        </mxCell>
        <mxCell id="HNl8YbV5i-yA4617Ao2V-22" value="" style="group" parent="YvW-6pdLt3FJuE7N5xjO-2" vertex="1" connectable="0">
          <mxGeometry x="280" y="120" width="180" height="100" as="geometry" />
        </mxCell>
        <mxCell id="HNl8YbV5i-yA4617Ao2V-5" value="Модуль взаимодействия с клиентом" style="html=1;dropTarget=0;whiteSpace=wrap;fontSize=16;" parent="HNl8YbV5i-yA4617Ao2V-22" vertex="1">
          <mxGeometry width="160" height="100" as="geometry" />
        </mxCell>
        <mxCell id="HNl8YbV5i-yA4617Ao2V-6" value="" style="shape=module;jettyWidth=8;jettyHeight=4;" parent="HNl8YbV5i-yA4617Ao2V-5" vertex="1">
          <mxGeometry x="1" width="20" height="20" relative="1" as="geometry">
            <mxPoint x="-27" y="7" as="offset" />
          </mxGeometry>
        </mxCell>
        <mxCell id="HNl8YbV5i-yA4617Ao2V-19" value="" style="html=1;rounded=0;" parent="HNl8YbV5i-yA4617Ao2V-22" vertex="1">
          <mxGeometry x="150" y="35" width="30" height="30" as="geometry" />
        </mxCell>
        <mxCell id="HNl8YbV5i-yA4617Ao2V-3" value="Введенные пользователем текстовые данные" style="html=1;dropTarget=0;whiteSpace=wrap;fontSize=16;" parent="1" vertex="1">
          <mxGeometry x="600" y="240" width="160" height="100" as="geometry" />
        </mxCell>
        <mxCell id="HNl8YbV5i-yA4617Ao2V-4" value="" style="shape=module;jettyWidth=8;jettyHeight=4;" parent="HNl8YbV5i-yA4617Ao2V-3" vertex="1">
          <mxGeometry x="1" width="20" height="20" relative="1" as="geometry">
            <mxPoint x="-27" y="7" as="offset" />
          </mxGeometry>
        </mxCell>
        <mxCell id="HNl8YbV5i-yA4617Ao2V-21" value="" style="endArrow=none;html=1;rounded=0;align=center;verticalAlign=top;endFill=0;labelBackgroundColor=none;endSize=6;" parent="1" source="HNl8YbV5i-yA4617Ao2V-19" target="HNl8YbV5i-yA4617Ao2V-3" edge="1">
          <mxGeometry relative="1" as="geometry">
            <mxPoint x="610" y="315" as="targetPoint" />
          </mxGeometry>
        </mxCell>
      </root>
    </mxGraphModel>
  </diagram>
</mxfile>
